<mxfile host="app.diagrams.net" modified="2021-09-13T11:45:14.328Z" agent="5.0 (Windows NT 10.0; Win64; x64) AppleWebKit/537.36 (KHTML, like Gecko) Chrome/93.0.4577.63 Safari/537.36" etag="ifkMq3Bnh9qDpf5XVqH0" version="15.2.1" type="github">
  <diagram id="kgpKYQtTHZ0yAKxKKP6v" name="Page-1">
    <mxGraphModel dx="862" dy="488" grid="1" gridSize="10" guides="1" tooltips="1" connect="1" arrows="1" fold="1" page="1" pageScale="1" pageWidth="850" pageHeight="1100" math="0" shadow="0">
      <root>
        <mxCell id="0" />
        <mxCell id="1" parent="0" />
        <mxCell id="hIZFL_zBeEMf77DvhG7H-15" value="&lt;p style=&quot;line-height: 150% ; font-size: 15px&quot;&gt;&lt;b&gt;Tributavel&lt;/b&gt;&lt;br&gt;«interface»&lt;br&gt;&lt;b&gt;+ getValorImposto(): double&lt;/b&gt;&lt;/p&gt;" style="html=1;strokeWidth=2;" parent="1" vertex="1">
          <mxGeometry x="280" y="170" width="210" height="80" as="geometry" />
        </mxCell>
        <mxCell id="hIZFL_zBeEMf77DvhG7H-17" style="edgeStyle=orthogonalEdgeStyle;orthogonalLoop=1;jettySize=auto;html=1;entryX=0.5;entryY=0;entryDx=0;entryDy=0;targetPerimeterSpacing=0;sourcePerimeterSpacing=0;shadow=0;sketch=0;rounded=0;strokeWidth=2;" parent="1" source="hIZFL_zBeEMf77DvhG7H-16" target="hIZFL_zBeEMf77DvhG7H-15" edge="1">
          <mxGeometry relative="1" as="geometry" />
        </mxCell>
        <mxCell id="hIZFL_zBeEMf77DvhG7H-16" value="&lt;b style=&quot;line-height: 150%&quot;&gt;&lt;font style=&quot;font-size: 15px&quot;&gt;Calculador imposto&lt;/font&gt;&lt;/b&gt;" style="html=1;strokeWidth=2;" parent="1" vertex="1">
          <mxGeometry x="60" y="70" width="200" height="40" as="geometry" />
        </mxCell>
        <mxCell id="hIZFL_zBeEMf77DvhG7H-18" value="&lt;p style=&quot;margin: 4px 0px 0px ; text-align: center ; font-size: 15px&quot;&gt;&lt;b style=&quot;line-height: 100%&quot;&gt;&lt;font style=&quot;font-size: 15px&quot;&gt;Se&lt;/font&gt;&lt;font style=&quot;font-size: 15px&quot;&gt;guroDeVida&lt;/font&gt;&lt;/b&gt;&lt;/p&gt;&lt;hr size=&quot;1&quot;&gt;&lt;div style=&quot;height: 2px&quot;&gt;&lt;/div&gt;" style="verticalAlign=top;align=left;overflow=fill;fontSize=12;fontFamily=Helvetica;html=1;strokeWidth=2;" parent="1" vertex="1">
          <mxGeometry x="140" y="330" width="140" height="60" as="geometry" />
        </mxCell>
        <mxCell id="hIZFL_zBeEMf77DvhG7H-19" value="" style="endArrow=block;dashed=1;endFill=0;endSize=12;html=1;shadow=0;sourcePerimeterSpacing=0;targetPerimeterSpacing=0;strokeWidth=2;exitX=0.5;exitY=0;exitDx=0;exitDy=0;entryX=0.5;entryY=1;entryDx=0;entryDy=0;" parent="1" source="hIZFL_zBeEMf77DvhG7H-18" target="hIZFL_zBeEMf77DvhG7H-15" edge="1">
          <mxGeometry width="160" relative="1" as="geometry">
            <mxPoint x="340" y="240" as="sourcePoint" />
            <mxPoint x="500" y="240" as="targetPoint" />
            <Array as="points">
              <mxPoint x="210" y="280" />
              <mxPoint x="385" y="280" />
            </Array>
          </mxGeometry>
        </mxCell>
        <mxCell id="lbTglQzUzrQdChHvkVYf-6" style="edgeStyle=orthogonalEdgeStyle;rounded=0;orthogonalLoop=1;jettySize=auto;html=1;entryX=0.5;entryY=1;entryDx=0;entryDy=0;strokeWidth=2;" edge="1" parent="1" source="hIZFL_zBeEMf77DvhG7H-20" target="hIZFL_zBeEMf77DvhG7H-22">
          <mxGeometry relative="1" as="geometry" />
        </mxCell>
        <mxCell id="hIZFL_zBeEMf77DvhG7H-20" value="&lt;p style=&quot;margin: 4px 0px 0px ; text-align: center ; font-size: 15px&quot;&gt;&lt;b&gt;ContaCorrente&lt;/b&gt;&lt;/p&gt;&lt;hr size=&quot;1&quot;&gt;&lt;div style=&quot;height: 2px&quot;&gt;&lt;/div&gt;" style="verticalAlign=top;align=left;overflow=fill;fontSize=12;fontFamily=Helvetica;html=1;strokeWidth=2;" parent="1" vertex="1">
          <mxGeometry x="470" y="330" width="140" height="60" as="geometry" />
        </mxCell>
        <mxCell id="lbTglQzUzrQdChHvkVYf-7" style="edgeStyle=orthogonalEdgeStyle;rounded=0;orthogonalLoop=1;jettySize=auto;html=1;entryX=0.5;entryY=1;entryDx=0;entryDy=0;strokeWidth=2;" edge="1" parent="1" source="hIZFL_zBeEMf77DvhG7H-21" target="hIZFL_zBeEMf77DvhG7H-22">
          <mxGeometry relative="1" as="geometry" />
        </mxCell>
        <mxCell id="hIZFL_zBeEMf77DvhG7H-21" value="&lt;p style=&quot;margin: 4px 0px 0px ; text-align: center ; font-size: 15px&quot;&gt;&lt;b&gt;ContaPoupança&lt;/b&gt;&lt;/p&gt;&lt;hr size=&quot;1&quot;&gt;&lt;div style=&quot;height: 2px&quot;&gt;&lt;/div&gt;" style="verticalAlign=top;align=left;overflow=fill;fontSize=12;fontFamily=Helvetica;html=1;strokeWidth=2;" parent="1" vertex="1">
          <mxGeometry x="690" y="330" width="140" height="60" as="geometry" />
        </mxCell>
        <mxCell id="hIZFL_zBeEMf77DvhG7H-22" value="&lt;p style=&quot;margin: 4px 0px 0px ; text-align: center ; font-size: 15px&quot;&gt;&lt;b&gt;Conta&lt;/b&gt;&lt;/p&gt;&lt;hr size=&quot;1&quot;&gt;&lt;div style=&quot;text-align: center ; height: 2px&quot;&gt;&lt;span style=&quot;font-size: 15px&quot;&gt; &lt;/span&gt;&lt;/div&gt;&lt;span style=&quot;font-size: 15px&quot;&gt;&lt;div style=&quot;text-align: center&quot;&gt;&lt;span&gt;«abstract&lt;/span&gt;&lt;span style=&quot;text-align: center&quot;&gt;»&lt;/span&gt;&lt;/div&gt;&lt;/span&gt;" style="verticalAlign=top;align=left;overflow=fill;fontSize=12;fontFamily=Helvetica;html=1;strokeWidth=2;" parent="1" vertex="1">
          <mxGeometry x="560" y="100" width="200" height="60" as="geometry" />
        </mxCell>
        <mxCell id="hIZFL_zBeEMf77DvhG7H-23" value="" style="endArrow=block;dashed=1;endFill=0;endSize=12;html=1;shadow=0;sourcePerimeterSpacing=0;targetPerimeterSpacing=0;strokeWidth=2;exitX=0.5;exitY=0;exitDx=0;exitDy=0;entryX=0.5;entryY=1;entryDx=0;entryDy=0;" parent="1" source="hIZFL_zBeEMf77DvhG7H-20" target="hIZFL_zBeEMf77DvhG7H-15" edge="1">
          <mxGeometry width="160" relative="1" as="geometry">
            <mxPoint x="340" y="210" as="sourcePoint" />
            <mxPoint x="500" y="210" as="targetPoint" />
            <Array as="points">
              <mxPoint x="540" y="280" />
              <mxPoint x="385" y="280" />
            </Array>
          </mxGeometry>
        </mxCell>
      </root>
    </mxGraphModel>
  </diagram>
</mxfile>
